<?xml version="1.0" standalone="no"?>
<!DOCTYPE svg PUBLIC "-//W3C//DTD SVG 20010904//EN"
 "http://www.w3.org/TR/2001/REC-SVG-20010904/DTD/svg10.dtd">
<svg version="1.0" xmlns="http://www.w3.org/2000/svg"
 width="2000.000000pt" height="2000.000000pt" viewBox="0 0 2000.000000 2000.000000"
 preserveAspectRatio="xMidYMid meet">
<metadata>
Created by potrace 1.16, written by Peter Selinger 2001-2019
</metadata>
<g transform="translate(0.000000,2000.000000) scale(0.100000,-0.100000)"
fill="#000000" stroke="none">
<path d="M0 10000 l0 -10000 10000 0 10000 0 0 10000 0 10000 -10000 0 -10000
0 0 -10000z m11575 3955 c180 -32 331 -112 461 -247 88 -90 144 -176 185 -282
62 -160 60 -94 57 -1777 l-3 -1534 -28 -90 c-99 -317 -351 -543 -667 -601 -61
-11 -352 -13 -1570 -13 -936 -1 -1521 3 -1564 9 -208 30 -419 157 -554 333
-54 69 -118 201 -145 295 l-22 77 -3 1524 c-3 1678 -5 1621 58 1778 64 160
206 331 346 415 84 51 198 95 290 112 122 22 3033 23 3159 1z m-3535 -5785 l0
-600 -115 0 -115 0 0 600 0 600 115 0 115 0 0 -600z m4670 416 l0 -184 53 21
c76 31 222 30 294 -2 76 -34 127 -94 155 -183 20 -63 23 -94 23 -233 0 -189
-19 -271 -80 -342 -90 -105 -231 -128 -602 -96 l-73 6 0 598 0 599 115 0 115
0 0 -184z m-6085 146 l100 -17 -2 -40 c-2 -22 -6 -64 -9 -94 l-6 -54 -61 7
c-151 15 -343 19 -380 7 -46 -15 -87 -63 -87 -101 0 -75 36 -101 232 -169 196
-67 265 -111 311 -196 19 -34 22 -56 22 -155 0 -97 -3 -122 -22 -162 -63 -136
-197 -208 -388 -208 -83 1 -358 40 -372 54 -5 5 14 178 20 182 1 1 49 -5 107
-12 156 -20 307 -18 349 4 51 25 72 60 73 120 2 82 -25 102 -222 167 -178 58
-275 118 -315 195 -22 43 -37 141 -31 194 21 160 96 245 259 291 66 19 277 13
422 -13z m3614 -414 c82 -558 80 -548 97 -548 8 0 14 2 14 5 0 9 200 928 206
948 5 15 20 17 139 17 119 0 134 -2 139 -17 3 -10 48 -218 101 -463 53 -245
99 -455 102 -467 4 -19 33 -34 33 -18 0 3 32 216 70 474 39 257 70 473 70 479
0 9 37 12 126 12 126 0 126 0 121 -22 -9 -37 -217 -1129 -217 -1139 0 -5 -80
-9 -180 -9 -178 0 -180 0 -185 23 -12 50 -175 845 -175 853 0 34 -20 -52 -85
-367 -41 -200 -82 -397 -91 -436 l-16 -73 -179 0 c-98 0 -179 3 -179 8 0 4
-50 265 -110 581 -61 315 -110 575 -110 577 0 2 55 4 123 4 l123 0 63 -422z
m-2850 121 c74 -16 134 -58 162 -115 23 -47 24 -60 29 -307 l5 -259 28 -22
c22 -18 27 -30 27 -66 0 -25 -3 -62 -7 -84 l-6 -39 -69 6 c-39 3 -90 16 -120
29 l-52 24 -66 -25 c-54 -21 -83 -25 -175 -25 -94 -1 -116 2 -150 21 -84 45
-117 105 -123 223 -5 102 8 158 48 204 54 61 108 76 378 102 l52 5 0 50 c0 37
-5 54 -22 71 -21 21 -26 21 -208 15 l-188 -6 -6 31 c-3 17 -6 52 -6 79 l0 48
43 12 c126 35 332 49 426 28z m2200 0 c74 -16 134 -58 162 -115 23 -47 24 -60
29 -307 l5 -259 28 -22 c22 -18 27 -30 27 -66 0 -25 -3 -62 -7 -84 l-6 -39
-69 6 c-39 3 -90 16 -120 29 l-52 24 -66 -25 c-54 -21 -83 -25 -175 -25 -94
-1 -116 2 -150 21 -84 45 -117 105 -123 223 -5 102 8 158 48 204 54 61 108 76
378 102 l52 5 0 50 c0 37 -5 54 -22 71 -21 21 -26 21 -208 15 l-188 -6 -6 31
c-3 17 -6 52 -6 79 l0 48 43 12 c126 35 332 49 426 28z m2523 -19 c75 -28 139
-92 170 -168 19 -49 23 -75 23 -187 0 -71 -4 -138 -7 -147 -7 -17 -29 -18
-258 -18 -247 0 -250 0 -250 -21 0 -43 32 -91 74 -110 44 -20 157 -24 329 -11
l88 7 -3 -84 c-3 -99 12 -89 -175 -116 -267 -39 -433 12 -495 152 -48 108 -61
290 -32 430 44 214 167 309 389 299 59 -3 110 -12 147 -26z m1815 4 l103 -17
0 -95 0 -95 -47 7 c-27 3 -112 9 -190 13 -123 5 -146 4 -168 -11 -28 -19 -35
-66 -11 -85 7 -6 76 -25 151 -41 217 -47 275 -93 291 -230 25 -219 -123 -335
-401 -317 -77 5 -268 34 -270 40 0 1 1 44 3 96 l3 93 42 -6 c110 -16 270 -24
318 -17 56 9 79 29 79 68 0 34 -33 49 -170 77 -232 47 -285 95 -285 261 0 97
12 133 64 188 85 92 222 112 488 71z m-5469 -141 c17 -82 47 -230 68 -331 37
-181 38 -183 63 -180 24 3 26 11 95 328 l71 325 119 3 119 3 -7 -23 c-3 -13
-50 -206 -103 -430 l-98 -408 -197 0 c-109 0 -198 2 -198 4 0 1 -45 190 -100
420 -55 229 -100 421 -100 426 0 6 46 10 118 10 l119 0 31 -147z"/>
<path d="M12798 8239 c-37 -4 -72 -10 -78 -14 -6 -4 -10 -87 -10 -236 l0 -229
43 -2 c142 -6 195 12 229 80 20 41 23 62 23 167 0 104 -3 125 -22 161 -12 22
-28 46 -37 53 -25 21 -76 27 -148 20z"/>
<path d="M7295 7943 c-16 -1 -54 -6 -84 -9 -42 -4 -61 -13 -83 -34 -35 -36
-38 -94 -7 -134 18 -22 28 -26 74 -26 29 0 76 5 104 12 l51 11 0 94 c0 68 -3
93 -12 92 -7 -1 -26 -4 -43 -6z"/>
<path d="M9495 7943 c-16 -1 -54 -6 -84 -9 -42 -4 -61 -13 -83 -34 -35 -36
-38 -94 -7 -134 18 -22 28 -26 74 -26 29 0 76 5 104 12 l51 11 0 94 c0 68 -3
93 -12 92 -7 -1 -26 -4 -43 -6z"/>
<path d="M11861 8247 c-38 -19 -61 -58 -68 -115 l-6 -52 153 0 152 0 -7 48
c-8 58 -33 103 -66 119 -31 16 -127 16 -158 0z"/>
</g>
</svg>
